<?xml version="1.0" encoding="utf-8"?>
<!-- Generator: Adobe Illustrator 19.0.0, SVG Export Plug-In . SVG Version: 6.00 Build 0)  -->
<svg version="1.1" id="Layer_1" xmlns="http://www.w3.org/2000/svg" xmlns:xlink="http://www.w3.org/1999/xlink" x="0px" y="0px"
	 viewBox="0 0 3500 3500" style="enable-background:new 0 0 3500 3500;" xml:space="preserve">
<style type="text/css">
	.st0{stroke:#000000;stroke-miterlimit:10;}
</style>
<g>
	<path class="st0" d="M1629.4,1205v532.9h-165.8v-733.4c55.5,0,158,3.6,222.5,5.1c79.5,165.3,279.3,552,284.5,562.1
		c5.2-10.2,274.4-520.7,300.4-567.7c63,0.7,206.8,0.6,206.8,0.6v733.2h-165.4c0,0,5.6-533.4,4.1-533.7
		c-2.9,4.7-196.6,366.4-279.7,533.4c-24.3,0.7-102,3.3-126.6,0.5C1828.4,1573.6,1629.4,1205,1629.4,1205z"/>
	<path class="st0" d="M126.5,1738.3v-732.7c8.2-0.4,305-3.1,445.4-0.1c54.6,1.2,110.3,8.4,163.2,22
		c129.1,33.2,207.5,116.2,223,251.2c8.3,72.1,9.3,144.8-4.7,216.6c-20.6,105.7-85.2,174.3-184.3,211.6
		c-60.6,22.8-124.1,32.1-188.8,32.3C434.6,1739.7,132.8,1738.7,126.5,1738.3 M295.4,1101.4c-0.9,21.5-2,174.9-2.6,251.9
		c11.6,1.3,51.4-3.1,60.7,14.7c3.5,6.8,7.3,13.5,13.3,24.7c2.3-12.1,3.8-18.6,4.9-25.2c7.2-46.2,14.7-92.5,21.4-138.8
		c2.3-15.7,7.2-28.5,24.9-29.8c19.6-1.4,25.5,12.6,28.6,28.5c0.7,3.7,1.6,7.4,2.5,11.1c15.2,65.3,30.4,130.5,46.9,201
		c4.3-11,6.9-17,9-23.2c11-32.9,20.4-66.5,33.4-98.6c4-9.8,17.6-21.9,26.5-21.7c8.7,0.3,20.5,13.4,24.8,23.6
		c8.5,20.4,12.8,42.5,20.4,69.4c10.3-17.4,16.5-31.2,25.8-42.6c6.5-8,17.5-17.6,25.5-17.6c20.2,0.1,29.9,45.6,40,46.3
		c17.2,1.6,21.7-23.9,31.7-22.9c22.5-2.3,44.8-1.4,60.8-1.5c2.2-28,1.2-38-0.2-56.6c-6.2-85.4-48.8-144.6-129.9-173.4
		c-24.7-8.8-51.1-16.2-77-17C491.6,1100.6,297.2,1100.8,295.4,1101.4 M303,1401.3l-8-0.3l-0.1,243.6c82.8,0,163.7,2.1,244.3-0.9
		c41-1.5,83.1-7.5,122.2-19.5c94.8-28.9,149.9-125.3,130.7-220.3c-30.1-4.2-39.3-2.8-50.2-2.8c-3.7,3.3-8.8,9.7-13,15.5
		c-27.6,39-40.5,39.2-61.1,3c-0.7-1.2-7.9-15.3-9.9-15.3c-3-0.3-19,31.3-28.5,46.2c-7.5,11.7-15.6,20-26.2,19.7
		c-8-0.3-21.8-7.3-28.3-26.4c-4.8-14.2-9.2-35.3-11.8-36c-3.4-0.8-28.1,79.4-42.6,118.2c-9.3,24.8-42,39.8-54.7-0.7
		c-15.6-49.7-23.4-101.5-35.4-152.1c-1.2-5.1-3.5-9.9-7.2-20.2c-6.8,43.3-12.8,80.5-18.3,117.8c-2.2,15-8.9,28.6-24.4,27.1
		c-10.1-1-18.6-0.9-28.2-19.7c-10.2-20.1-26.4-56.5-37.5-76.2C307.3,1400.5,303,1401.3,303,1401.3"/>
	<polygon class="st0" points="2802.2,1644.9 3415.3,1644.9 3415.3,1738 2636.3,1738 2636.3,1005.8 2802.2,1005.8 	"/>
	<path class="st0" d="M1389.6,1351.1c-1.2,143.8-41.3,257.7-118.9,358.9c-11.1,14.4-23.6,23.5-42.4,19.1
		c-20.5-4.8-31.5-27.1-22.4-46.1c3.5-7.4,9-13.9,14-20.5c133.9-177.9,133.4-417.4-1.5-594.5c-2.7-3.6-5.7-7.1-8.3-10.8
		c-13.2-18.9-11.3-38.1,4.7-50c16.1-11.9,35.7-9.4,50.1,8.3c38,46.6,68.5,97.9,88.4,154.7c11.5,32.7,20.9,66.4,27.4,100.3
		C1386.9,1302.1,1387.9,1334.8,1389.6,1351.1"/>
	<path class="st0" d="M1261.4,1373.6c-0.4,85.8-27.3,170.2-81.9,245.1c-7.8,10.6-23.7,20.8-36.3,21.3c-28.4,1.3-40.7-30.6-22.6-56.3
		c30.9-43.8,53.1-91.2,63.6-143.9c20.4-103.2-0.1-197.9-59-284.7c-3.4-5-7.3-9.7-10.1-15c-8.6-16-6.7-31.2,7.4-42.8
		c14.7-12,30.9-11.6,45.4,1c6.1,5.3,10.9,12.5,15.6,19.3C1235,1192.7,1261.4,1275.6,1261.4,1373.6"/>
	<path class="st0" d="M1820.2,1830.1v178.7h-41.8c0-40.1,0.5-86.1,0.5-125.7c-4.4,6.9-49.7,93.1-66.9,127.7
		c-10.7,0.5-26.1,0.2-35.6-0.4c-16.6-34.6-43.4-87.7-64.5-121.3v119.5h-41.6v-179.5c15.1,0,38.6-0.1,53.9,0.9
		c3.8,6.7,48.1,93.7,70.1,137.4c19.2-37.8,52.7-101.2,67.9-137.1C1768.7,1830.5,1779.5,1830,1820.2,1830.1"/>
	<path class="st0" d="M1125,1367c-0.2,55.7-15,107.3-43.4,155c-13.1,21.9-32.8,28.8-51.1,18.7c-18.4-10.2-22.1-30.2-9.2-52.9
		c46.4-81.9,46.2-163.7-1-245.2c-13.2-22.8-10-42.1,8.7-52.9c18.5-10.6,37.2-4,51.2,18C1108.7,1252.4,1125.1,1310.8,1125,1367"/>
	<path class="st0" d="M3396.8,1908.1c18.6,14.3,26.5,51.3,17.3,78.1c-7.6,22.1-27,24-46.4,24.1c-52,0.2-104.1,0.1-157.9,0.1v-180.5
		c57.3,0,114.4-1.3,171.4,1.1c10.9,0.5,26.4,13.7,30.5,24.6C3418.6,1873.7,3418.2,1894.8,3396.8,1908.1 M3251.9,1987.1
		c27.2,0,51.9,0,76.6,0c48.5,0,49.3,0,46.9-36.9c-1.7-26.5-9.5-28.8-13.5-28.9c-36.5-1-73-0.6-110.1-0.6V1987.1z M3251.8,1896.9
		c36.6,0,71.2,0.7,105.7-0.8c4.9-0.2,13.1-2.9,12.7-21c-0.4-17.6-5.9-21.1-10.2-21.3c-35.8-2-71.7-1.1-108.2-1.1V1896.9z"/>
	<path class="st0" d="M125.6,2010.4v-177.1c49.7,0,98.7-3.7,146.8,1.2c39.2,4,57.2,30.9,59.9,70.8c4.9,73.1-24.8,104.9-98.3,105.1
		C198.6,2010.5,163.2,2010.4,125.6,2010.4 M168.8,1857.3v126c29.9,0,56.7,0.8,83.2-3c24.2-3.4,36.3-18.4,37.9-42.9
		c0.8-12,0.8-24.2,0-36.1c-1.7-24.3-12.9-38.5-37.2-41.9C226.8,1855.7,199.6,1857,168.8,1857.3"/>
	<path class="st0" d="M661.7,1898.3c0,25.3,0.3,47.9-0.1,70.5c-0.4,27.5-11.9,40.4-40,41.1c-43,1.1-86.1,1.2-129.1-0.1
		c-27.8-0.8-38.9-13.8-39.1-41.8c-0.3-32.5-0.3-64.9,0-97.4c0.3-27.6,11.7-40.5,39.8-41.1c50.5-1.1,102.7-0.4,154.9-0.4
		c0.3,7.5,0.6,13.8,0.2,23.1c-41.4,0-81.1,0-120.9,0c-31.5,0-31.6,0-31.6,31c0,27.9,0.4,55.9-0.2,83.8c-0.3,14.4,5.3,20.5,20,20.2
		c27.9-0.6,55.9-0.4,83.8-0.1c13.1,0.2,19.8-4.5,19.4-18.4c-0.5-15,0.3-36.2-0.1-47.2c-14.1-0.8-25.9-0.5-40.2-1l-0.1-22.4H661.7z"
		/>
	<path class="st0" d="M1859.7,1830h43.3c0,43.7-1.6,136-1.1,145.3c0.1,7.8,5.9,8.8,14.7,9c23.8,0.4,70.2,1,94,1
		c8.9,0,15.4-0.7,15.4-6c0.3-8.3-0.5-104.2-0.5-148.6h41.4c0,50.6-0.1,101.5-0.6,152.4c-0.3,24.4-12.3,26-36.6,26.8
		c-43.7,1.3-87.5,1.6-131.2,0.1c-29.6-1-38.3-4-38.6-35.4C1859.6,1927,1859.7,1879.6,1859.7,1830"/>
	<path class="st0" d="M2109.4,2010v-22.9c45.5,0,94.4-1.2,138.8-1.1c18.5,0,30.7-0.7,28.7-30.9c-2.2-35.8-18.2-35-32.7-35
		c-33.3,0.1-59.6,0.5-92.8-0.4c-33.8-0.9-43.4-11.7-43.3-46.2c0.1-31.6,11.4-43.7,43.6-44.1c49.1-0.7,100-0.3,150.9-0.3
		c0.7,7-0.4,13.5,0.6,23.3c-43.7,0-85.8,0.8-127.8-0.4c-20.1-0.6-26.8,6.5-25.8,26.3c0.7,15.2,6.9,19.3,20.9,19.1
		c32.5-0.6,65-0.5,97.5-0.1c36.8,0.5,48.1,12.4,48.2,49.6c0,7.6,0.2,15.1,0,22.7c-0.9,25.7-11.2,39.4-36.5,40.1
		C2223.4,2011,2166.9,2010,2109.4,2010"/>
	<path class="st0" d="M1253.8,2013.5c-3.3,0.1-34,0.3-43,0.5c-8.6-16.1-25.5-45.3-35.7-63c-8.4,0.4-69.4,0.1-83.5,0.1
		c-6,11.3-31.1,55.8-33.5,59.9c-10.6,0-21.7-0.1-42.3,0c19.5-38.9,84.5-169.3,91.3-182.7c1.7,0.1,37,0.7,48,0.3
		C1159.4,1836.2,1251.4,2008.8,1253.8,2013.5 M1168.4,1927.7c-11.5-22.4-21.9-42.8-34.5-67.3c-12.7,25.4-22.7,45.3-33.8,67.3H1168.4
		z"/>
	<path class="st0" d="M2630.1,1987.1l0.1,22.6c-2.6,0.5-102,1.1-149.5,0.4c-32.9-0.4-44.3-12.8-44.6-46.1
		c-0.2-30.9-0.4-61.8,0.1-92.8c0.5-28,11.8-41.1,39.5-41.7c50.4-1.2,103.4-0.6,155.7-0.6c0.3,7.2-0.3,13.5,0,23.3
		c-40.6,0-79.5,0-118.5,0c-33.3,0-34.3,0.1-34.3,33.4c0,24.9-0.2,49.5,0.6,74.5c0.6,20.6,5,28.2,26.5,27.4
		C2546.3,1986,2587,1987.1,2630.1,1987.1"/>
	<path class="st0" d="M1000.1,1852.4h-92.8V2009h-42.4v-156.2l-93.7,0.1c-0.4-7.6-0.9-14.5-0.8-22.4h229.6V1852.4z"/>
	<path class="st0" d="M1280,1829.8h39.6v156.4h151.8c0.4,9,0.7,15.3,1.1,22.9H1280V1829.8z"/>
	<path class="st0" d="M2780.4,1830.6v155.4l151.8,0.1c0.7,9,0.4,15.1,1,23h-192.8v-178.4H2780.4z"/>
	<rect x="373.3" y="1829.9" class="st0" width="40.8" height="179.1"/>
	<rect x="2357.5" y="1829.7" class="st0" width="39.2" height="179.2"/>
	<rect x="702.7" y="1830.2" class="st0" width="39.7" height="178.4"/>
	<path class="st0" d="M3192.8,2010.2c-3.3,0.1-34,0.3-43,0.5c-8.6-16.1-25.5-45.3-35.7-63c-8.4,0.4-69.4,0.1-83.5,0.1
		c-6,11.3-31.1,55.8-33.5,59.9c-10.6,0-21.7-0.1-42.3,0c19.5-38.9,84.5-169.3,91.3-182.7c1.7,0.1,37,0.7,48,0.3
		C3098.4,1832.8,3190.4,2005.5,3192.8,2010.2 M3107.4,1924.4c-11.5-22.4-21.9-42.8-34.5-67.3c-12.7,25.4-22.7,45.3-33.8,67.3H3107.4
		z"/>
</g>
</svg>
