<?xml version="1.0" standalone="no"?>
<!DOCTYPE svg PUBLIC "-//W3C//DTD SVG 20010904//EN"
 "http://www.w3.org/TR/2001/REC-SVG-20010904/DTD/svg10.dtd">
<svg version="1.0" xmlns="http://www.w3.org/2000/svg"
 width="2065.000000pt" height="2065.000000pt" viewBox="0 0 2065.000000 2065.000000"
 preserveAspectRatio="xMidYMid meet">
<metadata>
Created by potrace 1.11, written by Peter Selinger 2001-2013
</metadata>
<g transform="translate(0.000000,2065.000000) scale(0.100000,-0.100000)"
fill="#000000" stroke="none">
<path d="M10102 20639 c-175 -20 -391 -83 -562 -161 -61 -28 -7240 -4167
-7527 -4339 -187 -113 -381 -288 -517 -468 -172 -229 -280 -479 -343 -796 -17
-86 -18 -299 -18 -4545 0 -3658 2 -4468 13 -4530 22 -123 69 -296 108 -393
134 -339 378 -644 676 -845 109 -73 7518 -4349 7612 -4393 226 -105 447 -157
704 -166 329 -11 602 47 882 187 113 56 7441 4286 7550 4357 288 189 529 472
665 781 86 196 137 397 155 609 14 167 13 8617 -1 8778 -32 379 -171 724 -408
1017 -79 98 -237 248 -341 323 -104 74 -7509 4351 -7655 4420 -179 86 -368
140 -575 165 -98 12 -312 11 -418 -1z m419 -634 c91 -17 214 -55 295 -91 63
-28 7465 -4300 7548 -4357 82 -55 207 -177 275 -267 100 -133 179 -311 218
-492 17 -79 18 -298 18 -4473 0 -4161 -1 -4394 -18 -4472 -36 -169 -95 -311
-185 -448 -58 -87 -194 -230 -281 -294 -58 -43 -7423 -4301 -7547 -4364 -199
-100 -477 -142 -709 -107 -103 15 -250 62 -345 110 -104 52 -7429 4280 -7515
4338 -91 61 -229 198 -294 292 -103 147 -175 321 -206 494 -13 79 -15 558 -15
4451 0 4800 -5 4433 60 4627 83 248 250 469 460 610 87 58 7401 4283 7510
4338 81 41 220 87 316 104 108 19 312 20 415 1z"/>
<path d="M6325 17151 c-189 -22 -376 -79 -539 -164 -76 -40 -111 -65 -153
-112 -230 -254 -537 -879 -708 -1440 -307 -1007 -346 -2008 -115 -2925 213
-847 663 -1630 1310 -2282 l175 -176 68 -12 c89 -16 151 -9 184 21 23 22 25
30 21 89 -3 44 -13 86 -33 129 -24 53 -43 76 -126 147 -280 241 -526 588 -763
1076 -319 656 -519 1398 -576 2137 -13 172 -13 560 0 727 68 870 364 1606 880
2190 123 140 161 159 305 159 90 -1 109 -5 190 -36 165 -63 321 -187 458 -364
284 -367 460 -917 529 -1650 20 -214 17 -976 -5 -1220 -10 -104 -31 -361 -47
-570 -125 -1591 -277 -2991 -386 -3544 l-26 -134 -177 -176 c-816 -813 -1569
-1829 -1961 -2646 -177 -368 -285 -685 -341 -1002 -30 -168 -37 -442 -15 -591
45 -304 169 -548 385 -755 170 -162 329 -257 508 -303 480 -121 1023 109 1452
615 771 909 1254 2563 1456 4989 l7 83 82 38 c112 52 424 218 559 298 722 428
1181 904 1534 1595 49 97 57 119 61 183 7 113 -30 191 -103 215 -29 9 -41 8
-78 -8 -52 -23 -77 -54 -147 -187 -291 -553 -1086 -1296 -1776 -1662 l-107
-56 6 39 c3 21 26 155 51 297 118 669 204 1334 250 1937 54 696 54 1430 1
1990 -132 1375 -563 2337 -1255 2797 -173 116 -419 215 -610 247 -115 20 -329
28 -425 17z m590 -8726 c-14 -83 -54 -328 -90 -545 -200 -1224 -418 -2122
-670 -2765 -61 -156 -188 -418 -253 -523 -293 -472 -604 -564 -946 -282 -60
49 -86 97 -130 236 -49 157 -61 245 -60 444 0 209 20 347 79 566 221 805 892
1800 1934 2867 85 86 155 156 157 154 2 -2 -8 -70 -21 -152z"/>
<path d="M13766 16615 c-468 -97 -743 -465 -828 -1105 -16 -124 -16 -569 0
-730 44 -434 132 -873 283 -1411 l61 -217 -40 -118 c-145 -434 -650 -1422
-1165 -2279 -315 -525 -633 -1005 -930 -1405 -669 -900 -1228 -1418 -1685
-1560 -89 -28 -106 -37 -137 -73 -47 -55 -49 -111 -5 -156 85 -84 262 -66 505
53 633 311 1304 1020 2013 2129 319 499 636 1056 1042 1832 195 372 444 843
488 923 l29 54 13 -84 c22 -153 89 -390 235 -826 137 -408 225 -695 225 -731
0 -10 -29 -32 -73 -55 -443 -241 -958 -602 -1332 -937 -538 -481 -870 -980
-972 -1459 -25 -120 -26 -450 0 -567 51 -239 165 -471 342 -699 144 -184 403
-343 700 -429 170 -49 320 -68 535 -68 221 0 337 15 546 68 790 203 1421 844
1668 1694 180 619 193 1307 40 2118 -19 100 -34 185 -34 188 0 11 58 27 305
86 285 67 483 123 623 175 296 111 574 270 723 415 48 46 58 62 64 101 9 61
-8 109 -51 148 -56 48 -105 43 -223 -25 -276 -157 -499 -230 -1027 -334 -165
-33 -343 -73 -394 -90 -52 -17 -95 -29 -96 -28 -1 1 -32 94 -69 207 -91 275
-230 645 -495 1316 -259 653 -365 936 -413 1094 -57 191 -60 168 33 340 264
487 421 906 475 1265 22 147 20 374 -5 494 -62 306 -256 531 -566 658 -83 34
-97 36 -214 39 -81 2 -149 -2 -194 -11z m397 -354 c180 -125 256 -331 235
-632 -18 -269 -126 -610 -314 -998 -47 -96 -89 -170 -93 -165 -5 5 -31 99 -59
209 -109 431 -146 663 -146 935 -1 209 14 303 66 428 39 95 116 180 200 222
34 16 63 30 65 30 3 0 23 -13 46 -29z m-240 -6058 c3 -128 17 -341 31 -484 62
-619 52 -922 -40 -1269 -124 -469 -559 -987 -1008 -1201 -344 -163 -629 -118
-810 129 -51 71 -132 238 -170 354 -53 158 -70 283 -63 457 11 282 104 541
296 827 313 468 885 944 1606 1338 77 42 143 76 146 76 3 0 9 -102 12 -227z"/>
</g>
</svg>
